
<svg version="1.1"  id="Layer_1" xmlns="http://www.w3.org/2000/svg" xmlns:xlink="http://www.w3.org/1999/xlink" x="0px" y="0px"
	 width="341.419px" height="342.084px" viewBox="0 0 341.419 342.084" style="enable-background:new 0 0 341.419 342.084;"
	 xml:space="preserve">
<style type="text/css">
<![CDATA[
	.st0{fill:#188739;}
	.st1{fill:#E9EAEA;}
	.st2{fill:#1C953F;}
	.st3{fill:#22B24C;}
	.st4{fill:#237D46;}
	.st5{fill:#FFFFFF;}
	.st6{fill:#007646;}
	.st7{fill:#009947;}
	.st8{fill:#D0D1D2;}
	.st9{fill:#05762B;}
	.st10{fill:#0B6F32;}
	.st11{fill:#0C6F33;}
	.st12{fill:#0FA94A;}
]]>
</style>
<g>
	<path class="st5" d="M160.679,0.667c-3.96,0.4-7.97,0.25-11.89,1c-8.04,1.61-16.28,2.29-24.06,5.04
		c-12.06,3.32-23.87,7.78-34.66,14.18c-12.07,5.6-22.4,14.1-32.7,22.38c-6.47,5.19-11.62,11.75-17.24,17.79
		c-4.24,4.54-7.41,9.92-11.06,14.93c-11.08,15.77-18.27,33.87-23.87,52.21c-3.24,13.77-5.57,27.89-5.15,42.08
		c-0.4,16.44,1.77,32.98,6.75,48.66c3.2,12.67,8.98,24.49,14.92,36.06c7,11.64,14.74,22.97,24.32,32.66
		c3.6,4.69,8.5,8.07,12.55,12.33c13.9,12.69,30.39,22.35,47.79,29.39c6.04,3.24,12.83,4.56,19.29,6.68
		c21.97,5.87,45.2,7.77,67.72,4.28c48.14-5.92,92.82-34.21,119.34-74.73c4.86-8.26,10.41-16.22,13.82-25.23
		c2.12-5.56,4.6-10.97,6.32-16.67c6.4-18.43,8.43-38.03,8.55-57.43c-1.39-20.72-4.91-41.57-13.32-60.68
		c-12.41-30.55-34.44-56.84-61.47-75.56c-10.98-8.11-23.6-13.6-36.09-18.95c-16.14-5.9-33.14-9.34-50.28-10.48
		C173.759-0.183,167.169-0.242,160.679,0.667z"/>
	<g>
		<path class="st5" d="M77.509,30.348c44.44-29.68,103.85-35.14,152.99-14.14c17.5,7.26,33.74,17.57,47.7,30.4
			c8.37,7,14.93,15.81,22.04,24.02c21.15,28.56,32.47,64.22,31.81,99.74c-0.28,39.16-15.31,77.98-41.39,107.18
			c-31.07,35.46-78.05,56.43-125.23,55.44c-27.44-0.12-54.72-7.62-78.63-21.02c-12.17-7.92-24.43-16.01-34.54-26.54
			c-29.88-28.88-47.73-69.65-49.13-111.14c-1.05-25.58,4.23-51.3,14.63-74.65C30.759,71.618,51.469,47.087,77.509,30.348z
			 M152.739,19.857c-32.39,3.08-63.49,17.4-87.17,39.67c-18.43,17.4-32.55,39.49-40.03,63.76c-9.66,30.02-9.29,63.12,0.93,92.95
			c8.84,26.47,25.46,50.3,47.14,67.85c22.05,18.03,49.41,29.5,77.74,32.56c7.63,0.43,15.29,1.59,22.94,0.61
			c37.73-1.26,74.56-18.16,100.56-45.46c28.82-29.44,44.12-71.38,41.49-112.45c-1.73-29.17-12.21-57.79-29.92-81.06
			c-26.38-35.12-68.96-57.89-113.02-58.9C166.519,18.397,159.629,19.658,152.739,19.857z"/>
	</g>
	<g>
		<path class="st5" d="M42.769,133.788c13.43-0.01,26.87,0,40.3,0c0.51,0,1.52,0,2.03,0c-0.66,5.66,1.75,12.25-1.98,17.15
			c-7.79,11.59-15.57,23.2-23.24,34.87c6.34,0,12.68-0.02,19.02,0.04c-3.27-10.2-1.54-22.47,6.36-30.12
			c8.49-8.25,24.35-10.11,32.36-0.24c0.07-1.66,0.09-3.31,0.3-4.96c4.61,0.05,9.21,0.05,13.82,0.02c0.04,1.67,0.11,3.35,0.15,5.03
			c3.48-5.97,10.93-7.42,17.3-6.57c4.74,1.1,8.57,4.34,11.08,8.42c4.95-7.88,15.56-10.73,23.99-7.1
			c5.89,2.58,10.22,8.55,10.45,15.03c0.76,11.9,0.17,23.85,0.36,35.77c-5.11,0-10.21,0-15.31,0.01c-0.03-9.29,0.01-18.57,0-27.85
			c-0.01-3.23-0.56-6.96-3.34-9.01c-4.41-2.21-10.81-0.77-12.12,4.51c-0.77,10.76-0.21,21.56-0.38,32.33
			c-5.09,0.01-10.18,0.01-15.28,0.02c-0.05-9.64,0.07-19.28-0.03-28.92c-0.18-3.22-1.12-7.26-4.51-8.51
			c-2.89-0.49-6.48-0.76-8.67,1.59c-2.43,2.39-2.58,5.97-2.66,9.16c-0.05,8.89,0.01,17.77-0.01,26.66
			c-3.26,0.01-6.51,0.01-9.76,0.02c-1.79-0.01-3.57,0-5.35,0.01c0.02-1.59,0.05-3.18,0.08-4.76c-2.38,2.53-5.23,4.63-8.56,5.71
			c-8.78,2.19-18.73-0.15-24.93-6.93c-1.28,2.25-2.6,4.99-5.39,5.61c-3.12,0.64-6.33,0.3-9.49,0.36
			c-10.32-0.03-20.63,0.03-30.95-0.03c-0.04-1.18-0.06-2.36-0.06-3.54c0.21-2.83-0.46-5.91,0.71-8.57
			c8.6-13.39,17.65-26.51,26.31-39.87c-5.24-0.12-10.48,0.18-15.71-0.11c-2.89-0.16-5.7-2.14-6.58-4.93
			C42.459,140.688,42.799,137.218,42.769,133.788z M104.009,163.098c-8.77,0.58-13.87,11.61-9.45,18.95
			c2.97,6.66,12.24,8.62,17.97,4.37c4.69-3.5,6.64-10.37,4.18-15.73C114.769,165.698,109.299,162.498,104.009,163.098z"/>
	</g>
	<path class="st5" d="M203.949,138.607c2.67-5.9,9.7-4.94,14.99-4.82c-0.02,5.59,0.01,11.18,0.01,16.78h1.19c2.01,0,4.03,0,6.05,0
		c0,3.83,0,7.65,0.01,11.47c-2.4,0-4.8-0.01-7.19-0.04l0.11,0.43c-0.39,12.9-0.08,25.8-0.18,38.71c-3.13,0.04-6.28,0.18-9.39-0.23
		c-2.56-0.38-4.37-2.52-5.69-4.56c-0.41-11.3,0.14-22.61-0.3-33.91l0.08-0.43c-2.47,0.02-4.93,0.03-7.4,0.05
		c0.01-3.84,0.01-7.68,0.01-11.52c2.5,0.02,5,0.04,7.5,0.05C203.769,146.598,203.629,142.587,203.949,138.607z"/>
	<path class="st5" d="M281.629,140.278c0.16-4.88,5.65-7.14,9.91-6.54c1.71,0.02,3.42,0.07,5.13,0.13
		c-0.09,22.42-0.01,44.84-0.04,67.25c-5.04-0.02-10.07,0.12-15.09-0.07C281.639,180.798,281.439,160.528,281.629,140.278z"/>
	<g>
		<path class="st5" d="M237.789,152.798c9.18-5.85,21.95-5.2,30.43,1.64c7.81,6.06,11.13,16.51,10.01,26.13
			c-12.68,0.05-25.36-0.03-38.04,0.1c0.16,0.44,0.48,1.34,0.63,1.79c2.03,6.08,9.64,9.03,15.42,6.65c2.01-0.92,3.5-2.62,5.21-3.97
			c5.15-0.13,10.3-0.05,15.45-0.04c-1.97,4.03-4.35,7.93-7.66,11c-5.59,4.98-13.31,7.64-20.78,6.49
			c-9.04-1.15-17.23-7.23-20.93-15.56C221.909,175.127,226.669,159.728,237.789,152.798z M240.459,170.248
			c7.52-0.07,15.03,0.01,22.55-0.01l0.08-0.67c-2.05-5.76-8.22-8.84-14.12-7.74C244.939,163.038,241.519,166.087,240.459,170.248z"
			/>
	</g>
</g>
<g>
	<g>
		<path class="st1" d="M160.679,0.667c6.49-0.91,13.08-0.85,19.58-0.06c17.14,1.14,34.14,4.58,50.28,10.48
			c12.49,5.35,25.11,10.84,36.09,18.95c27.03,18.72,49.06,45.01,61.47,75.56c8.41,19.11,11.93,39.96,13.32,60.68
			c-0.12,19.4-2.15,39-8.55,57.43c-1.72,5.7-4.2,11.11-6.32,16.67c-3.41,9.01-8.96,16.97-13.82,25.23
			c-26.52,40.52-71.2,68.81-119.34,74.73c-22.52,3.49-45.75,1.59-67.72-4.28c-6.46-2.12-13.25-3.44-19.29-6.68
			c-17.4-7.04-33.89-16.7-47.79-29.39c-4.05-4.26-8.95-7.64-12.55-12.33c-9.58-9.69-17.32-21.02-24.32-32.66
			c-5.94-11.57-11.72-23.39-14.92-36.06c-4.98-15.68-7.15-32.22-6.75-48.66c-0.42-14.19,1.91-28.31,5.15-42.08
			c5.6-18.34,12.79-36.44,23.87-52.21c3.65-5.01,6.82-10.39,11.06-14.93c5.62-6.04,10.77-12.6,17.24-17.79
			c10.3-8.28,20.63-16.78,32.7-22.38c10.79-6.4,22.6-10.86,34.66-14.18c7.78-2.75,16.02-3.43,24.06-5.04
			C152.709,0.917,156.719,1.067,160.679,0.667z M77.509,30.348c-26.04,16.74-46.75,41.27-59.75,69.29
			c-10.4,23.35-15.68,49.07-14.63,74.65c1.4,41.49,19.25,82.26,49.13,111.14c10.11,10.53,22.37,18.62,34.54,26.54l-1.66-0.13
			c1.07,2.58,3.96,3.29,6.16,4.6c37.33,21.09,83.14,25.96,124.28,14.21c47.66-13.23,88.38-49.23,107.29-94.93
			c16.69-38.46,17.44-83.34,2.69-122.53c-4.88-11.88-10.26-23.68-17.6-34.27c-2.42-3.48-4.54-7.27-7.86-9.99l0.14,1.7
			c-7.11-8.21-13.67-17.02-22.04-24.02c-13.96-12.83-30.2-23.14-47.7-30.4C181.359-4.792,121.949,0.667,77.509,30.348z"/>
	</g>
</g>
<g>
	<g>
		<path class="st7" d="M152.739,19.857c6.89-0.2,13.78-1.46,20.66-0.47c44.06,1.01,86.64,23.78,113.02,58.9
			c17.71,23.27,28.19,51.89,29.92,81.06c2.63,41.07-12.67,83.01-41.49,112.45c-26,27.3-62.83,44.2-100.56,45.46
			c-7.65,0.98-15.31-0.18-22.94-0.61c-28.33-3.06-55.69-14.53-77.74-32.56c-21.68-17.55-38.3-41.38-47.14-67.85
			c-10.22-29.83-10.59-62.93-0.93-92.95c7.48-24.27,21.6-46.36,40.03-63.76C89.249,37.258,120.349,22.938,152.739,19.857z
			 M160.759,35.558c-4.49-0.46-8.96,0.28-13.39,0.94c-38.97,5.91-74.88,29.97-94.63,64.16c-7.25,11.59-11.52,24.71-15.03,37.83
			c-3.61,16.31-3.83,33.25-1.85,49.79c0.16,3.23,0.74,6.51,2.49,9.29c0,1.18,0.02,2.36,0.06,3.54c0.38,0.53,0.74,1.08,1.08,1.65
			c-0.63,1.92,0.21,3.83,0.81,5.64c6.8,20.89,18.24,40.56,34.35,55.63c8.96,9.35,19.87,16.54,31.12,22.84
			c7.7,4.19,16,7.13,24.37,9.67c13.05,4.19,26.88,5.4,40.52,5.44c24.34,5.81,51.47,0.49,70.94-15.51
			c7.72-5.76,13.97-13.24,19.24-21.24c5.32-2.61,8.58-7.85,12.44-12.12c5.41-5.88,9.12-13,13.24-19.77c1.06-1.66,1.45-3.6,1.68-5.52
			c7.33-9.66,13.36-20.42,16.58-32.17c8.6-29.16,2.98-62.89-16.63-86.43c-0.23-0.4-0.69-1.19-0.92-1.59
			c-0.28-1.42-0.54-2.83-0.95-4.22c-9.43-28.11-31.36-51.69-58.69-63.17C206.529,31.718,182.779,29.968,160.759,35.558z"/>
	</g>
</g>
<g>
	<path class="st2" d="M160.759,35.558c22.02-5.59,45.77-3.84,66.83,4.68c27.33,11.48,49.26,35.06,58.69,63.17
		c0.41,1.39,0.67,2.8,0.95,4.22c-6.73-8.69-15.48-15.68-24.79-21.44c-16.64-10.35-36.61-15-56.12-13.64
		c-22.5,1.56-44.61,11.06-60.31,27.41c-13.02,11.89-21.61,28.08-26.08,45.01c-0.6,1.88-1.34,3.7-2.01,5.56
		c-0.21,1.65-0.23,3.3-0.3,4.96c-8.01-9.87-23.87-8.01-32.36,0.24c-0.71-1.6-1.43-3.2-2.14-4.79c3.73-4.9,1.32-11.49,1.98-17.15
		c-0.51,0-1.52,0-2.03,0c0.05-20.64,7.38-40.85,19.17-57.65C116.269,56.448,137.309,41.638,160.759,35.558z"/>
	<path class="st2" d="M288.149,109.218c19.61,23.54,25.23,57.27,16.63,86.43c-3.22,11.75-9.25,22.51-16.58,32.17
		c-5.08,6.46-10.92,12.34-17.74,16.96c1.32-8.1,3.08-16.19,2.94-24.44c0.04-6.93-1.19-13.8-3.01-20.47l0.39-0.48
		c3.54-4.47,6-9.66,9.36-14.26c0.54,5.27,0.32,10.58,0.64,15.86l0.76,0.06c5.02,0.19,10.05,0.05,15.09,0.07
		c0.03-22.41-0.05-44.83,0.04-67.25c-1.71-0.06-3.42-0.11-5.13-0.13C291.329,125.458,289.789,117.308,288.149,109.218z"/>
	<path class="st2" d="M78.849,200.778c2.79-0.62,4.11-3.36,5.39-5.61c6.2,6.78,16.15,9.12,24.93,6.93c-0.17,1.01-0.34,2.03-0.5,3.05
		c-2.39,14.19-1.98,29.14,3.03,42.75c2.07,6.94,5.68,13.23,8.96,19.63c-25.59,0.03-48.58-21.22-51.89-46.35
		c-1.01-6.66-0.48-13.43,0.59-20.04C72.519,201.078,75.729,201.417,78.849,200.778z"/>
	<path class="st2" d="M248.489,257.498c7.45-2.92,14.24-7.21,21.04-11.37c-2.09,6.7-5.03,13.1-8.69,19.1
		c-5.27,8-11.52,15.48-19.24,21.24c-19.47,16-46.6,21.32-70.94,15.51c-20.09-4.53-37.87-17.49-49.37-34.44
		c9.38,0.22,18.93-1.59,27.18-6.19c5.49-2.8,9.99-7.08,14.76-10.9C188.479,265.877,221.059,268.708,248.489,257.498z"/>
</g>
<g>
	<path class="st3" d="M147.369,36.498c4.43-0.66,8.9-1.4,13.39-0.94c-23.45,6.08-44.49,20.89-58.52,40.58
		c-11.79,16.8-19.12,37.01-19.17,57.65c-13.43,0-26.87-0.01-40.3,0c0.03,3.43-0.31,6.9,0.31,10.3c0.88,2.79,3.69,4.77,6.58,4.93
		c5.23,0.29,10.47-0.01,15.71,0.11c-8.66,13.36-17.71,26.48-26.31,39.87c-1.17,2.66-0.5,5.74-0.71,8.57
		c-1.75-2.78-2.33-6.06-2.49-9.29c-1.98-16.54-1.76-33.48,1.85-49.79c3.51-13.12,7.78-26.24,15.03-37.83
		C72.489,66.468,108.399,42.408,147.369,36.498z"/>
	<path class="st3" d="M59.879,185.808c7.67-11.67,15.45-23.28,23.24-34.87c0.71,1.59,1.43,3.19,2.14,4.79
		c-7.9,7.65-9.63,19.92-6.36,30.12C72.559,185.788,66.219,185.808,59.879,185.808z"/>
	<path class="st3" d="M38.409,201.107c10.32,0.06,20.63,0,30.95,0.03c-1.07,6.61-1.6,13.38-0.59,20.04
		c3.31,25.13,26.3,46.38,51.89,46.35l0.63,0.01c11.5,16.95,29.28,29.91,49.37,34.44c-13.64-0.04-27.47-1.25-40.52-5.44
		c-8.37-2.54-16.67-5.48-24.37-9.67c-11.25-6.3-22.16-13.49-31.12-22.84c-16.11-15.07-27.55-34.74-34.35-55.63
		c-0.6-1.81-1.44-3.72-0.81-5.64C39.149,202.188,38.789,201.638,38.409,201.107z"/>
</g>
<g>
	<path class="st8" d="M300.099,68.928c3.32,2.72,5.44,6.51,7.86,9.99c7.34,10.59,12.72,22.39,17.6,34.27
		c14.75,39.19,14,84.07-2.69,122.53c-18.91,45.7-59.63,81.7-107.29,94.93c-41.14,11.75-86.95,6.88-124.28-14.21
		c-2.2-1.31-5.09-2.02-6.16-4.6l1.66,0.13c23.91,13.4,51.19,20.9,78.63,21.02c47.18,0.99,94.16-19.98,125.23-55.44
		c26.08-29.2,41.11-68.02,41.39-107.18c0.66-35.52-10.66-71.18-31.81-99.74L300.099,68.928z"/>
</g>
<g>
	<path class="st0" d="M146.009,99.958c15.7-16.35,37.81-25.85,60.31-27.41c19.51-1.36,39.48,3.29,56.12,13.64
		c9.31,5.76,18.06,12.75,24.79,21.44c0.23,0.4,0.69,1.19,0.92,1.59c1.64,8.09,3.18,16.24,3.39,24.52c-4.26-0.6-9.75,1.66-9.91,6.54
		c-0.19,20.25,0.01,40.52-0.09,60.77l-0.76-0.06c-0.32-5.28-0.1-10.59-0.64-15.86c-3.36,4.6-5.82,9.79-9.36,14.26
		c-0.52-1.1-1.04-2.2-1.54-3.29c3.31-3.07,5.69-6.97,7.66-11c-5.15-0.01-10.3-0.09-15.45,0.04c1.09-0.81,2.22-1.56,3.36-2.32
		c-7.92-1.36-16.01-0.69-23.99-0.36c-0.15-0.45-0.47-1.35-0.63-1.79c12.68-0.13,25.36-0.05,38.04-0.1
		c1.12-9.62-2.2-20.07-10.01-26.13c-8.48-6.84-21.25-7.49-30.43-1.64c-5.5-3.73-11.52-6.55-17.46-9.5c0.09-3.15,0.09-6.31-0.2-9.45
		l-1.19-0.06c-5.29-0.12-12.32-1.08-14.99,4.82c-7.19-0.28-14.41-0.83-21.59-0.2c-11.63,1.2-23.08,4.62-33.17,10.6
		c-6.37-0.85-13.82,0.6-17.3,6.57c-0.04-1.68-0.11-3.36-0.15-5.03c-4.61,0.03-9.21,0.03-13.82-0.02c0.67-1.86,1.41-3.68,2.01-5.56
		C124.399,128.038,132.989,111.848,146.009,99.958z"/>
	<path class="st0" d="M104.009,163.098c5.29-0.6,10.76,2.6,12.7,7.59c2.46,5.36,0.51,12.23-4.18,15.73
		c-5.73,4.25-15,2.29-17.97-4.37C90.139,174.708,95.239,163.678,104.009,163.098z"/>
	<path class="st0" d="M248.969,161.828c5.9-1.1,12.07,1.98,14.12,7.74c-2.48-0.02-5.03,0.34-7.44-0.33
		C252.969,167.218,251.079,164.388,248.969,161.828z"/>
	<path class="st0" d="M235.979,228.897c13.4-7.05,24.89-17.32,34.41-29.03c1.82,6.67,3.05,13.54,3.01,20.47
		c0.14,8.25-1.62,16.34-2.94,24.44c-0.24,0.34-0.7,1.01-0.93,1.35c-6.8,4.16-13.59,8.45-21.04,11.37
		c-27.43,11.21-60.01,8.38-85.26-7.05c-4.77,3.82-9.27,8.1-14.76,10.9c-8.25,4.6-17.8,6.41-27.18,6.19l-0.63-0.01
		c-3.28-6.4-6.89-12.69-8.96-19.63c-5.01-13.61-5.42-28.56-3.03-42.75c8.55,9,17.85,17.6,29.15,23.03c0.81,0.61,1.61,1.23,2.42,1.85
		c4.75,6.65,11.04,12.02,17.54,16.9c1.59,0.92,3.3,2.59,5.27,2.07c2.96-2.15,4.3-5.76,6.84-8.3c4.71-1.36,9.66,0.3,14.47,0.38
		C202.229,241.518,220.109,237.087,235.979,228.897z"/>
</g>
<g>
	<path class="st9" d="M218.939,133.788l1.19,0.06c0.29,3.14,0.29,6.3,0.2,9.45c-0.07,2.42-0.14,4.84-0.19,7.27h-1.19
		C218.949,144.968,218.919,139.377,218.939,133.788z"/>
</g>
<g>
	<path class="st4" d="M149.189,149.008c10.09-5.98,21.54-9.4,33.17-10.6c7.18-0.63,14.4-0.08,21.59,0.2
		c-0.32,3.98-0.18,7.99-0.2,11.98c-2.5-0.01-5-0.03-7.5-0.05c0,3.84,0,7.68-0.01,11.52c2.47-0.02,4.93-0.03,7.4-0.05l-0.08,0.43
		c-2.18,6.73-0.6,13.9-1.07,20.83c0.25,4.33-1.07,9.17,1.37,13.08c1.32,2.04,3.13,4.18,5.69,4.56c3.11,0.41,6.26,0.27,9.39,0.23
		l1.14-0.07c0.61-7.9,0.03-15.83,0.21-23.74c-0.12-4.98,0.88-10.18-1.17-14.9l-0.11-0.43c2.39,0.03,4.79,0.04,7.19,0.04
		c-0.01-3.82-0.01-7.64-0.01-11.47c-2.02,0-4.04,0-6.05,0c0.05-2.43,0.12-4.85,0.19-7.27c5.94,2.95,11.96,5.77,17.46,9.5
		c-11.12,6.93-15.88,22.33-10.26,34.23c3.7,8.33,11.89,14.41,20.93,15.56c7.47,1.15,15.19-1.51,20.78-6.49
		c0.5,1.09,1.02,2.19,1.54,3.29l-0.39,0.48c-9.52,11.71-21.01,21.98-34.41,29.03c-15.87,8.19-33.75,12.62-51.62,12.18
		c-4.81-0.08-9.76-1.74-14.47-0.38c-2.54,2.54-3.88,6.15-6.84,8.3c-1.97,0.52-3.68-1.15-5.27-2.07c-6.5-4.88-12.79-10.25-17.54-16.9
		c9.7,3.96,19.49,8.22,30.01,9.37c10.04-17.48,8.86-40.61-2.89-56.99c-3.12-3.85-2.17-9.06-3.06-13.62
		c1.31-5.28,7.71-6.72,12.12-4.51c2.78,2.05,3.33,5.78,3.34,9.01c0.01,9.28-0.03,18.56,0,27.85c5.1-0.01,10.2-0.01,15.31-0.01
		c-0.19-11.92,0.4-23.87-0.36-35.77c-0.23-6.48-4.56-12.45-10.45-15.03c-8.43-3.63-19.04-0.78-23.99,7.1
		C157.759,153.348,153.929,150.107,149.189,149.008z"/>
	<path class="st4" d="M240.459,170.248c1.06-4.16,4.48-7.21,8.51-8.42c2.11,2.56,4,5.39,6.68,7.41c2.41,0.67,4.96,0.31,7.44,0.33
		l-0.08,0.67C255.489,170.258,247.979,170.178,240.459,170.248z"/>
	<path class="st4" d="M240.819,182.458c7.98-0.33,16.07-1,23.99,0.36c-1.14,0.76-2.27,1.51-3.36,2.32c-1.71,1.35-3.2,3.05-5.21,3.97
		C250.459,191.488,242.849,188.538,240.819,182.458z"/>
	<path class="st4" d="M109.169,202.098c3.33-1.08,6.18-3.18,8.56-5.71c-0.03,1.58-0.06,3.17-0.08,4.76
		c1.78-0.01,3.56-0.02,5.35-0.01c3.29,9.81,8.72,18.74,14.82,27.04c-11.3-5.43-20.6-14.03-29.15-23.03
		C108.829,204.127,108.999,203.107,109.169,202.098z"/>
</g>
<g>
	<path class="st6" d="M135.429,165.298c2.19-2.35,5.78-2.08,8.67-1.59c3.39,1.25,4.33,5.29,4.51,8.51
		c0.1,9.64-0.02,19.28,0.03,28.92c5.1-0.01,10.19-0.01,15.28-0.02c0.17-10.77-0.39-21.57,0.38-32.33c0.89,4.56-0.06,9.77,3.06,13.62
		c11.75,16.38,12.93,39.51,2.89,56.99c-10.52-1.15-20.31-5.41-30.01-9.37c-0.81-0.62-1.61-1.24-2.42-1.85
		c-6.1-8.3-11.53-17.23-14.82-27.04c3.25-0.01,6.5-0.01,9.76-0.02c0.02-8.89-0.04-17.77,0.01-26.66
		C132.849,171.268,132.999,167.688,135.429,165.298z"/>
</g>
<g>
	<path class="st10" d="M202.489,183.268c0.47-6.93-1.11-14.1,1.07-20.83c0.44,11.3-0.11,22.61,0.3,33.91
		C201.419,192.438,202.739,187.598,202.489,183.268z"/>
</g>
<g>
	<path class="st11" d="M219.119,162.428c2.05,4.72,1.05,9.92,1.17,14.9c-0.18,7.91,0.4,15.84-0.21,23.74l-1.14,0.07
		C219.039,188.228,218.729,175.328,219.119,162.428z"/>
</g>
<g>
	<path class="st12" d="M270.459,244.778c6.82-4.62,12.66-10.5,17.74-16.96c-0.23,1.92-0.62,3.86-1.68,5.52
		c-4.12,6.77-7.83,13.89-13.24,19.77c-3.86,4.27-7.12,9.51-12.44,12.12c3.66-6,6.6-12.4,8.69-19.1
		C269.759,245.788,270.219,245.118,270.459,244.778z"/>
</g>
</svg>
