<svg width="27" height="27" viewBox="0 0 27 27" fill="none" xmlns="http://www.w3.org/2000/svg">
<path d="M14.852 0.0226513C14.8003 0.0374805 14.6781 0.0523097 14.5814 0.0559899C14.1965 0.0633504 12.9531 0.377903 12.5016 0.577718C12.4609 0.596228 12.3462 0.644395 12.2426 0.685094C11.972 0.788682 11.2583 1.12889 11.1473 1.2105C11.0955 1.24384 11.0104 1.28822 10.9549 1.29937C10.8993 1.3142 10.855 1.34007 10.855 1.3549C10.855 1.36973 10.8253 1.39181 10.7921 1.40664C10.755 1.41746 10.6773 1.46217 10.6144 1.50287C10.5518 1.54447 10.4862 1.58159 10.4183 1.61392C10.3701 1.63243 10.2776 1.69164 10.211 1.74381C10.1444 1.79599 10.0779 1.83636 10.0667 1.83636C9.98165 1.83636 8.78947 2.7023 8.45327 3.00538C8.17996 3.25282 7.67306 3.79403 7.67306 3.83787C7.67306 3.84869 7.63972 3.90076 7.59534 3.94893C7.48428 4.0747 7.15155 4.60022 7.0551 4.79636C7.01429 4.88879 6.9329 5.0517 6.88116 5.16265C6.69985 5.53273 6.62581 5.93604 6.64432 6.40603C6.66651 6.86866 6.7701 7.1096 7.08465 7.4274C7.41403 7.75678 7.7655 7.90107 8.32067 7.93062C8.70179 7.94913 8.97565 7.9198 9.35677 7.8122C9.47887 7.77897 9.64166 7.73827 9.71938 7.71608C9.7971 7.69758 9.88597 7.66792 9.92298 7.64573C10.0081 7.60135 10.4858 7.3867 10.5075 7.3867C10.5742 7.3867 11.3549 6.90935 12.077 6.42822C12.5544 6.10998 12.9725 5.83288 13.0095 5.81394C13.0429 5.79175 13.2685 5.65851 13.5091 5.51422C13.7496 5.3735 14.0456 5.20335 14.1678 5.14046C14.29 5.07757 14.4639 4.98502 14.5563 4.93696C14.6488 4.89258 14.8228 4.81118 14.9449 4.7667C15.067 4.71864 15.2187 4.65575 15.278 4.62977C15.3408 4.6039 15.4295 4.5632 15.4814 4.54101C15.6257 4.4818 15.9514 4.42259 16.2697 4.4003C16.958 4.35581 17.4387 4.65932 17.687 5.29579C17.7462 5.44732 17.7572 5.57332 17.7572 6.01744C17.7572 6.55767 17.7092 6.85372 17.5649 7.20161C17.5352 7.27186 17.4945 7.37177 17.4723 7.42361C17.2873 7.86741 16.9061 8.50409 16.4695 9.08145C16.055 9.63652 15.1632 10.5579 14.5752 11.0427C14.3717 11.213 14.146 11.3979 14.0757 11.4572C13.9203 11.587 13.739 11.7162 13.5391 11.8494C13.4577 11.9012 13.3245 11.9901 13.2431 12.0492C13.0136 12.2047 12.403 12.5303 12.0589 12.6783C11.959 12.7227 11.8221 12.7819 11.7559 12.8116C11.693 12.8411 11.6079 12.8633 11.5672 12.8633C11.5302 12.8633 11.4451 12.8818 11.3784 12.904C11.1379 12.9892 10.8937 12.8263 10.8937 12.5784C10.8937 12.2754 11.038 12.0826 11.9483 11.1796C12.9327 10.2026 13.0399 10.0583 13.0399 9.68826C13.0399 9.30714 12.8586 9.04811 12.4516 8.84094C12.274 8.74839 12.2073 8.73724 11.8966 8.73724C11.5338 8.73724 11.3229 8.78909 11.0602 8.94821C11.001 8.98523 10.9086 9.03329 10.8567 9.05926C10.8047 9.08524 10.7568 9.11468 10.7456 9.12583C10.7345 9.13698 10.6605 9.1924 10.5791 9.25572C10.383 9.40369 10.0388 9.75526 9.8431 10.0106C9.70617 10.1882 9.60627 10.3547 9.37311 10.7914C9.18066 11.1541 9.00671 11.8276 9.00671 12.2202C9.00671 13.0157 9.42117 13.6522 10.0614 13.833C10.2538 13.8885 11.0383 13.8885 11.3085 13.8366C11.5749 13.7812 12.2705 13.566 12.3151 13.5259C12.3405 13.5057 12.3715 13.4941 12.4039 13.4925C12.5001 13.4925 13.5992 12.9338 13.9767 12.6895C14.0617 12.6341 14.158 12.5711 14.195 12.5488C14.2283 12.5303 14.4022 12.423 14.5836 12.3119C14.7612 12.201 14.9165 12.0973 14.9277 12.0863C14.9385 12.0714 15.0646 11.9789 15.2052 11.8828C15.3495 11.7828 15.5161 11.6681 15.5753 11.6274C15.6382 11.5829 15.8121 11.4498 15.9638 11.3276C16.9259 10.5617 17.7771 9.74379 18.2729 9.10732C18.3543 9.00742 18.4283 8.91487 18.4395 8.90383C18.469 8.88164 18.7209 8.51892 18.8941 8.24506C18.9898 8.09949 19.0775 7.94881 19.1568 7.79369C19.2272 7.66045 19.3233 7.47914 19.3715 7.3866C19.4196 7.29405 19.523 7.05353 19.6046 6.85004C19.6823 6.64643 19.76 6.44662 19.7748 6.40624C19.8785 6.14354 20.0376 5.46638 20.1078 4.98156C20.1856 4.43385 20.1263 3.53468 19.9746 3.03882C19.9117 2.83533 19.897 2.79831 19.76 2.50227C19.464 1.86569 18.9903 1.28844 18.4463 0.911105C18.3723 0.859365 18.2798 0.789007 18.2391 0.748741C18.1059 0.630324 17.4287 0.326596 17.0328 0.212184C16.8029 0.146669 16.5693 0.0947665 16.3333 0.0567476C15.9326 0.00414182 14.9747 -0.0217281 14.852 0.0226513ZM25.5798 18.3217C25.569 18.3291 25.3985 18.3625 25.195 18.3957C24.9915 18.4254 24.6585 18.4809 24.4548 18.5178L24.0849 18.5808V21.9852C24.0849 25.682 24.0774 25.5266 24.2957 25.9892C24.3698 26.1483 24.4734 26.2853 24.6325 26.4296C25.0247 26.7885 25.3911 26.8996 26.1719 26.9032C26.838 26.9032 26.8121 26.9291 26.7973 26.3148L26.7865 25.871L26.5016 25.8451C25.9946 25.8007 25.7504 25.5972 25.6949 25.1753C25.68 25.0495 25.669 23.4657 25.6727 21.6598C25.6764 18.5329 25.669 18.2331 25.5801 18.3219L25.5798 18.3217ZM15.3332 18.3959C14.5116 18.518 14.2377 18.5699 14.2044 18.6106C14.1785 18.6402 14.1749 19.8206 14.186 22.078C14.2044 25.2308 14.2119 25.5158 14.2711 25.6674C14.4118 26.0264 14.4857 26.1522 14.6744 26.3409C15.063 26.7295 15.5588 26.8886 16.3729 26.8886C16.8244 26.8886 16.8873 26.8813 16.917 26.8221C16.954 26.7517 16.9725 26.1077 16.9428 25.9598C16.9212 25.8672 16.9058 25.8636 16.6283 25.8414C16.2767 25.8197 16.0695 25.7007 15.9247 25.4454L15.8322 25.2789L15.8213 23.3621C15.814 21.9333 15.8213 21.4304 15.8547 21.3897C15.888 21.349 16.0138 21.3378 16.4097 21.3378C17.0203 21.3378 16.9685 21.3971 16.9538 20.6902L16.9429 20.2092L16.4249 20.1907C16.1399 20.1799 15.8846 20.1574 15.862 20.1426C15.8251 20.121 15.814 19.8946 15.814 19.2248V18.3404L15.7326 18.3442C15.6844 18.3479 15.5068 18.3701 15.3329 18.3959H15.3332ZM2.51087 20.0647C2.23323 20.0906 1.56721 20.2497 1.3635 20.3386C1.30927 20.3617 1.25367 20.3814 1.19703 20.3978C1.03466 20.4421 0.49345 20.7117 0.49345 20.7492C0.49345 20.7677 0.526789 20.8529 0.563808 20.9417C0.808002 21.4782 0.90055 21.6707 0.919059 21.6707C0.929883 21.6707 0.967119 21.6559 1.00414 21.6374C1.19707 21.5399 1.39758 21.4582 1.60369 21.3932C1.71464 21.3598 1.84789 21.3154 1.89973 21.2969C2.10691 21.2229 2.6583 21.1859 2.91364 21.2267C3.41686 21.3081 3.60195 21.5406 3.6315 22.137C3.64633 22.4663 3.64633 22.4737 3.56126 22.4959C3.51309 22.5108 3.17267 22.5218 2.80627 22.5218C1.92561 22.5218 1.65543 22.5736 1.08521 22.8512C0.596822 23.088 0.234101 23.5357 0.0601559 24.1131C-0.0286029 24.4202 -0.0174539 24.9937 0.0824538 25.2972C0.415407 26.3039 1.20742 26.8921 2.31008 26.9513C3.31295 27.0068 4.34504 26.7071 5.00781 26.1742L5.24832 25.9781L5.25915 24.0205C5.26997 21.7521 5.26651 21.6744 4.99265 21.1196C4.87056 20.868 4.45978 20.4683 4.20443 20.3574C4.08601 20.3019 3.95656 20.2463 3.91586 20.2275C3.63951 20.1054 2.93637 20.024 2.51087 20.0647ZM3.6025 23.6319C3.62469 23.6616 3.63951 24.1019 3.63951 24.6348C3.63951 25.6857 3.65424 25.6192 3.38049 25.7634C3.27679 25.819 3.16206 25.8301 2.80313 25.8338H2.35544L2.17034 25.7079C2.07043 25.6413 1.95202 25.5303 1.91132 25.4674C1.63746 25.0678 1.65597 24.3536 1.94466 24.002C2.02973 23.8947 2.35544 23.669 2.41464 23.669C2.45064 23.6687 2.48562 23.657 2.51455 23.6356C2.56629 23.5802 2.73656 23.5654 3.16953 23.5727C3.4804 23.5764 3.57652 23.5876 3.6025 23.6319ZM11.7436 20.1535C11.0076 20.3274 10.4188 20.642 9.82676 21.1818L9.67132 21.3225V26.7882C9.67132 26.8474 9.72685 26.8511 10.4781 26.8437L11.281 26.8329L11.2918 24.2537L11.2992 21.6775L11.4399 21.5666C11.6064 21.4333 11.6878 21.3926 11.9024 21.3186C12.1578 21.2335 12.5574 21.1928 12.8571 21.2261C13.0052 21.2409 13.1458 21.2478 13.168 21.237C13.1939 21.2296 13.2605 21.1037 13.3195 20.9555C13.3749 20.8075 13.4638 20.6151 13.5082 20.5262C13.6303 20.2931 13.6192 20.234 13.4564 20.1969C13.3787 20.1785 13.2381 20.1451 13.1382 20.1229C12.8754 20.0563 12.0725 20.0748 11.7431 20.1525L11.7436 20.1535ZM19.7922 20.1609C19.6701 20.1794 19.5554 20.2127 19.5369 20.2312C19.5115 20.2513 19.4804 20.263 19.4481 20.2645C19.4184 20.2645 19.2857 20.3163 19.1558 20.3829C18.8709 20.5236 18.4343 20.9268 18.2492 21.2272C18.0868 21.4899 17.8976 21.8822 17.8681 22.0228C17.8533 22.082 17.8311 22.1671 17.8126 22.2078C17.7977 22.2485 17.7533 22.4076 17.7163 22.5594C17.6164 22.959 17.6164 24.2394 17.7126 24.6131C17.8015 24.9573 18.0013 25.4828 18.0383 25.4828C18.0567 25.4828 18.0716 25.5013 18.0716 25.5235C18.0716 25.6642 18.5119 26.2228 18.8228 26.4745C18.9597 26.5855 19.2666 26.7451 19.4963 26.8224C19.7442 26.9075 20.292 27 20.5361 27C21.0617 27 22.0089 26.7742 22.3234 26.5744C22.3975 26.53 22.4974 26.4782 22.5492 26.4634C22.6602 26.4301 22.9045 26.2783 22.934 26.2266C22.9674 26.1748 22.5529 25.3347 22.4974 25.3347C22.4715 25.3347 22.405 25.368 22.3531 25.4087C22.3013 25.4494 22.2384 25.4828 22.2088 25.4828C22.1828 25.4828 22.1273 25.5044 22.0866 25.5346C22.0459 25.5605 21.8536 25.6382 21.6611 25.7048C21.3317 25.8195 21.2762 25.8269 20.7915 25.8307C20.3327 25.8307 20.2549 25.8232 20.1069 25.7529C19.5888 25.505 19.2928 24.8795 19.2928 24.0359C19.2928 23.8546 19.2964 23.7028 19.3036 23.6992C19.3073 23.6917 20.1287 23.6806 21.1242 23.6695L22.9375 23.651L22.9267 23.281C22.905 22.5558 22.712 21.5787 22.5456 21.3567C22.5307 21.335 22.4789 21.2419 22.4308 21.1495C22.231 20.7536 21.8091 20.4135 21.3095 20.2465C20.9432 20.1208 20.2734 20.0842 19.7923 20.1615L19.7922 20.1609ZM20.5879 21.3376C20.7432 21.3783 21.0689 21.6407 21.0689 21.7225C21.0689 21.7447 21.0948 21.8113 21.1244 21.8668C21.2095 22.0333 21.276 22.5812 21.2169 22.6514C21.18 22.6994 21.0356 22.7068 20.2881 22.7068H19.4037L19.3821 22.6143C19.3339 22.4256 19.4635 21.9187 19.6114 21.7225C19.7738 21.5042 19.9186 21.3932 20.1333 21.3303C20.2517 21.2969 20.3663 21.2747 20.3923 21.2821C20.4139 21.2896 20.5032 21.3154 20.5884 21.3376H20.5879ZM7.04395 17.5557C6.76252 17.7 6.67755 17.7704 6.55546 17.9517C6.43704 18.133 6.43336 18.1478 6.43336 18.5254V18.9177L6.57407 19.11C6.74066 19.3358 6.85161 19.4172 7.09591 19.5023C7.42518 19.6096 7.71019 19.5689 8.03946 19.3616C8.43541 19.1099 8.57234 18.4661 8.33171 17.9924C8.24663 17.8258 8.1726 17.7481 7.95059 17.6075C7.75078 17.478 7.24377 17.4484 7.04395 17.5557ZM7.95059 20.2275C7.89138 20.246 7.7248 20.2793 7.58051 20.2979C7.4398 20.3163 7.18088 20.3533 7.00683 20.3792C6.83288 20.4009 6.68123 20.4347 6.66272 20.4458C6.62938 20.4755 6.6257 26.7626 6.65525 26.8182C6.67008 26.8367 6.99947 26.8514 7.43244 26.8514C8.18732 26.8514 8.191 26.8514 8.20951 26.7663C8.22033 26.7219 8.22434 25.2269 8.22033 23.4469C8.20951 20.2386 8.20951 20.209 8.13515 20.2016C8.09445 20.1978 8.01305 20.209 7.95016 20.2275H7.95059Z" fill="#FF0000"/>
</svg>
